# xmcd
#
# Track frame offsets: 
#        182
#        4405
#        26052
#        43880
#        59727
#        79337
#        98142
#        125612
#        150192
#        170150
#        193137
#        215970
#
# Disc length: 3139 seconds
#
# Revision: 4
# Processed by: cddbd v1.5.2PL0 Copyright (c) Steve Scherf et al.
# Submitted via: ExactAudioCopy v0.95a5
#
DISCID=b30c410c
DTITLE=Vanessa Williams - k-The Sweetest Days
DYEAR=1994
DGENRE=R&B
TTITLE0=Intro-lude
TTITLE1=The Way That You Love
TTITLE2=Betcha Never
TTITLE3=The Sweetest Day
TTITLE4=Higher Ground
TTITLE5=You Don't Have To Say You're Sorry
TTITLE6=Ellamental
TTITLE7=Sister Moon
TTITLE8=You Can't Run
TTITLE9=Moonlight Over Paris
TTITLE10=Constantly
TTITLE11=Long Way Home
EXTD=YEAR: 1994
EXTT0=
EXTT1=
EXTT2=
EXTT3=
EXTT4=
EXTT5=
EXTT6=
EXTT7=
EXTT8=
EXTT9=
EXTT10=
EXTT11=
PLAYORDER=
